<?xml version="1.0" standalone="no"?>
<!DOCTYPE svg PUBLIC "-//W3C//DTD SVG 20010904//EN"
 "http://www.w3.org/TR/2001/REC-SVG-20010904/DTD/svg10.dtd">
<svg version="1.0" xmlns="http://www.w3.org/2000/svg"
 width="222.000000pt" height="222.000000pt" viewBox="0 0 222.000000 222.000000"
 preserveAspectRatio="xMidYMid meet">

<g transform="translate(0.000000,222.000000) scale(0.100000,-0.100000)"
fill="#000000" stroke="none">
<path d="M1127 1986 c-24 -70 -22 -169 4 -215 11 -20 52 -65 91 -101 39 -36
117 -111 174 -167 l104 -103 0 38 c-1 70 -40 134 -160 266 -122 134 -176 216
-188 288 l-8 43 -17 -49z"/>
<path d="M928 1841 c-114 -120 -201 -270 -244 -420 -23 -82 -26 -105 -21 -190
3 -61 13 -118 26 -156 14 -37 20 -72 16 -90 -6 -35 17 -75 43 -75 10 0 35 -25
57 -55 22 -30 43 -55 48 -55 4 0 7 -9 7 -20 0 -15 -7 -20 -29 -20 -125 0 -263
148 -316 340 -34 122 -50 141 -58 68 -3 -30 -17 -90 -32 -133 -35 -105 -48
-226 -35 -313 26 -165 148 -327 305 -405 132 -67 433 -116 535 -87 19 5 52 12
73 14 33 5 93 30 107 47 3 3 39 30 80 60 41 31 90 73 108 94 31 35 35 37 58
24 34 -18 90 -83 128 -149 27 -48 83 -100 107 -100 13 0 10 63 -4 81 -7 9 -24
19 -39 23 -30 7 -68 67 -68 106 0 28 -18 60 -34 60 -7 0 -23 12 -35 26 -20 23
-21 29 -11 55 7 16 18 29 26 29 22 0 55 -57 63 -111 9 -57 30 -85 57 -75 15 6
16 9 4 16 -17 11 -21 45 -10 89 7 24 5 42 -5 62 -10 19 -13 42 -9 73 6 42 4
48 -27 77 -29 27 -33 38 -37 92 -4 63 -38 171 -76 237 -26 46 -99 126 -148
162 -37 29 -40 24 -18 -27 8 -17 14 -66 14 -115 0 -72 -4 -93 -27 -140 l-27
-55 7 65 c10 88 7 204 -6 228 -7 13 -7 22 1 30 9 9 8 12 -2 12 -8 0 -30 23
-49 51 -37 55 -87 99 -226 203 -208 156 -230 185 -229 306 0 42 6 85 13 98 24
45 4 32 -61 -37z"/>
</g>
</svg>
